<svg xmlns="http://www.w3.org/2000/svg" viewBox="0 0 64 64" fill="#3f0968">
  <path d="M19.7,10.5c1.6,0.5,2.9,2,3.3,4c0.4,2-0.2,4-1.5,4.6c-1.4,0.7-3.2-0.3-4.1-2c-0.9-1.7-1-4,0-5.4 C18,10.9,18.9,10.2,19.7,10.5z"/>
  <path d="M24.6,13.1c1.3,0.6,2.3,2,2.5,3.7c0.2,1.6-0.3,3.3-1.5,3.8c-1.1,0.5-2.5-0.3-3.3-1.7c-0.8-1.4-0.9-3.3,0-4.4 C22.9,13.5,23.9,12.9,24.6,13.1z"/>
  <path d="M29,16c1.3,0.3,2.4,1.6,2.8,3.1c0.4,1.5,0,3.2-1.1,3.7c-1,0.5-2.2-0.3-3-1.5c-0.7-1.2-1-2.9-0.3-4 C27.7,16.4,28.3,15.9,29,16z"/>
  <path d="M33.5,20.2c1,0.1,2,1.1,2.5,2.5c0.5,1.4,0.3,3.1-0.6,3.5c-0.8,0.4-1.9-0.3-2.5-1.5c-0.6-1.1-0.9-2.6-0.3-3.5 C32.8,20.5,33.2,20.1,33.5,20.2z"/>
  <path d="M18.5,24c3.5,0.2,6.6,3.1,8.1,7.1c1.5,4,1.3,9.1-0.4,13c-1.8,4.1-5,6.6-8.8,6.6c-3.9,0-7.2-2.8-8.6-7.3 c-1.3-4.2-0.4-9.6,2.2-13.5C13.7,26.3,15.9,23.8,18.5,24z"/>
</svg>
